<svg xmlns="http://www.w3.org/2000/svg" viewBox="0 0 100.07 100.07"><defs><style>.cls-1{fill:#f2f2f2;}</style></defs><g id="图层_2" data-name="图层 2"><g id="图层_1-2" data-name="图层 1"><rect class="cls-1" width="100.07" height="100.07" rx="2.7"/><path d="M56.36,59.83a6.73,6.73,0,0,1-4.71,1.5H50.23a6.74,6.74,0,0,1-4.71-1.5,5.81,5.81,0,0,1-1.64-4.5V42.61a5.81,5.81,0,0,1,1.64-4.5,6.74,6.74,0,0,1,4.71-1.5h1.42a6.73,6.73,0,0,1,4.71,1.5A5.78,5.78,0,0,1,58,42.61V55.33A5.78,5.78,0,0,1,56.36,59.83ZM54.12,40.07A2.93,2.93,0,0,0,52,39.29H49.88a2.93,2.93,0,0,0-2.12.78A2.5,2.5,0,0,0,47,41.94V56a2.5,2.5,0,0,0,.81,1.87,2.93,2.93,0,0,0,2.12.78H52a2.93,2.93,0,0,0,2.12-.78A2.5,2.5,0,0,0,54.93,56V41.94A2.5,2.5,0,0,0,54.12,40.07Z"/></g></g></svg>