<?xml version="1.0" standalone="no"?><!DOCTYPE svg PUBLIC "-//W3C//DTD SVG 1.1//EN" "http://www.w3.org/Graphics/SVG/1.1/DTD/svg11.dtd"><svg t="1605454535625" class="icon" viewBox="0 0 1024 1024" version="1.1" xmlns="http://www.w3.org/2000/svg" p-id="3435" xmlns:xlink="http://www.w3.org/1999/xlink" width="200" height="200"><defs><style type="text/css"></style></defs><path d="M166.6 606m-26.6 0a26.6 26.6 0 1 0 53.2 0 26.6 26.6 0 1 0-53.2 0Z" p-id="3436"></path><path d="M871.7 516.4H152.3c-33.5 0-60.7-27.2-60.7-60.7V323.9c0-33.5 27.2-60.7 60.7-60.7h719.5c33.5 0 60.7 27.2 60.7 60.7v131.8c-0.1 33.5-27.2 60.7-60.8 60.7z" fill="#FFCD43" p-id="3437"></path><path d="M871.7 543H152.3c-48.1 0-87.3-39.1-87.3-87.3V323.9c0-48.1 39.1-87.2 87.3-87.2h719.5c48.1 0 87.3 39.1 87.3 87.2v131.8c-0.1 48.1-39.2 87.3-87.4 87.3zM152.3 289.8c-18.8 0-34.1 15.3-34.1 34.1v131.8c0 18.8 15.3 34.1 34.1 34.1h719.5c18.8 0 34.1-15.3 34.1-34.1V323.9c0-18.8-15.3-34.1-34.1-34.1H152.3z" p-id="3438"></path><path d="M798.8 951.1H225.2c-48.1 0-87.2-39.1-87.2-87.3V697c0-14.7 11.9-26.6 26.6-26.6 14.7 0 26.6 11.9 26.6 26.6v166.9c0 18.8 15.3 34.1 34.1 34.1h573.5c18.8 0 34.1-15.3 34.1-34.1V516.4c0-14.7 11.9-26.6 26.6-26.6s26.6 11.9 26.6 26.6v347.5c-0.1 48.1-39.2 87.2-87.3 87.2zM511.6 290.3c-11.4 0-21.9-7.3-25.4-18.8-17.2-56.1-47.5-124.3-66.6-136.8-26.6-17.4-62.4-9.9-79.8 16.7-8.4 12.9-11.6 31.1-8.5 48.7s12 32.2 24.3 40.3c12.3 8 15.7 24.5 7.7 36.8-8 12.3-24.5 15.7-36.8 7.7-24.5-16-41.8-43.5-47.5-75.4-5.6-31 0.4-62.8 16.3-87.1 33.4-51.1 102.2-65.5 153.3-32.1 44.7 29.2 81.4 143.1 88.3 165.7 4.3 14-3.6 28.9-17.6 33.2-2.5 0.7-5.1 1.1-7.7 1.1z" p-id="3439"></path><path d="M512.4 290.3c-2.6 0-5.2-0.4-7.8-1.2-14-4.3-21.9-19.1-17.6-33.2 6.9-22.5 43.6-136.4 88.3-165.7 24.8-16.2 54.3-21.8 83.3-15.7 28.9 6.1 53.8 23 70 47.8 15.9 24.3 21.9 56.1 16.3 87.1-5.7 31.9-23 59.4-47.5 75.3-12.3 8-28.7 4.6-36.8-7.7-8-12.3-4.6-28.7 7.7-36.8 12.3-8 21.1-22.7 24.3-40.3 3.2-17.6 0-35.8-8.5-48.7-8.4-12.9-21.4-21.7-36.4-24.9-15.1-3.2-30.5-0.3-43.3 8.2-19.1 12.5-49.4 80.7-66.6 136.8-3.6 11.6-14.1 19-25.4 19z" p-id="3440"></path><path d="M540.4 951.8h-56.8c-31.4 0-56.9-25.5-56.9-56.9V294.2c0-31.4 25.5-56.9 56.9-56.9h56.8c31.4 0 56.9 25.5 56.9 56.9v600.6c0 31.5-25.5 57-56.9 57z m-56.8-661.3c-2.1 0-3.8 1.7-3.8 3.8v600.6c0 2.1 1.7 3.8 3.8 3.8h56.8c2.1 0 3.8-1.7 3.8-3.8V294.2c0-2.1-1.7-3.8-3.8-3.8h-56.8z" p-id="3441"></path></svg>