<svg xmlns="http://www.w3.org/2000/svg" width="48" height="48.001" viewBox="0 0 48 48.001">
  <defs>
    <style>
      .cls-1 {
        fill: #ffbb58;
      }
    </style>
  </defs>
  <path id="减去_1" data-name="减去 1" class="cls-1" d="M498,48H482a16,16,0,0,1-16-16V16A16,16,0,0,1,482,0h16a16,16,0,0,1,16,16V32a16,16,0,0,1-16,16ZM481.429,22.286a1.714,1.714,0,1,0,0,3.428h6.857v6.857a1.714,1.714,0,1,0,3.428,0V25.714h6.857a1.714,1.714,0,1,0,0-3.428h-6.857V15.429a1.714,1.714,0,1,0-3.428,0v6.857Z" transform="translate(-466)"/>
</svg>
